<?xml version="1.0" encoding="UTF-8"?>
<svg width="700pt" height="700pt" version="1.1" viewBox="0 0 700 700" xmlns="http://www.w3.org/2000/svg" xmlns:xlink="http://www.w3.org/1999/xlink">
 <defs>
  <symbol id="x" overflow="visible">
   <path d="m0.10938 0h-0.03125-0.015625c-0.011719 0-0.027344-0.0039062-0.046875-0.015625-0.011719-0.0078125-0.015625-0.023438-0.015625-0.046875 0-0.0078125 0.0039062-0.019531 0.015625-0.03125 0.019531-0.007812 0.035156-0.015625 0.046875-0.015625h0.015625 0.03125v0.03125c-0.011719-0.0078125-0.023438-0.015625-0.03125-0.015625h-0.015625l-0.015625 0.015625c-0.011719 0-0.015625 0.0078125-0.015625 0.015625 0 0.023438 0.0039062 0.039062 0.015625 0.046875h0.015625 0.015625c0.0078125-0.0078125 0.019531-0.015625 0.03125-0.015625z"/>
  </symbol>
  <symbol id="c" overflow="visible">
   <path d="m0.078125-0.0625h-0.015625c-0.011719 0-0.015625 0.0078125-0.015625 0.015625v0.015625 0.03125h-0.03125v-0.078125h0.03125v0.015625-0.015625l0.015625-0.015625h0.015625z"/>
  </symbol>
  <symbol id="a" overflow="visible">
   <path d="m0.09375-0.046875v0.015625h-0.0625v0.015625h0.03125c0.0078125 0 0.019531-0.0039062 0.03125-0.015625v0.03125h-0.03125-0.046875c-0.011719-0.0078125-0.015625-0.023438-0.015625-0.046875 0-0.0078125 0.0039062-0.019531 0.015625-0.03125 0.0078125-0.0078125 0.019531-0.015625 0.03125-0.015625 0.019531 0 0.03125 0.0078125 0.03125 0.015625 0.0078125 0.011719 0.015625 0.023438 0.015625 0.03125zm-0.03125 0v-0.015625h-0.015625-0.015625v0.015625z"/>
  </symbol>
  <symbol id="b" overflow="visible">
   <path d="m0.046875-0.03125h-0.015625v0.015625h0.015625 0.015625v-0.015625zm0.046875-0.015625v0.046875h-0.03125v-0.015625c0 0.011719-0.0078125 0.015625-0.015625 0.015625h-0.015625-0.015625c-0.011719-0.0078125-0.015625-0.019531-0.015625-0.03125 0-0.0078125 0.0039062-0.015625 0.015625-0.015625h0.03125 0.015625v-0.015625h-0.015625-0.03125v-0.015625h0.015625l0.015625-0.015625c0.019531 0 0.03125 0.0078125 0.03125 0.015625 0.0078125 0.011719 0.015625 0.023438 0.015625 0.03125z"/>
  </symbol>
  <symbol id="e" overflow="visible">
   <path d="m0.046875-0.10938v0.03125h0.015625v0.015625h-0.015625v0.03125 0.015625h0.015625v0.015625h-0.015625-0.03125v-0.03125-0.03125h-0.015625v-0.015625h0.015625v-0.03125z"/>
  </symbol>
  <symbol id="i" overflow="visible">
   <path d="m0.0625-0.078125v-0.046875h0.03125v0.125h-0.03125v-0.015625c0 0.011719-0.0078125 0.015625-0.015625 0.015625h-0.03125c-0.011719-0.0078125-0.015625-0.023438-0.015625-0.046875 0-0.0078125 0.0039062-0.019531 0.015625-0.03125 0.0078125-0.0078125 0.019531-0.015625 0.03125-0.015625v0.015625h0.015625zm-0.015625 0.0625h0.015625v-0.03125c0-0.0078125-0.0078125-0.015625-0.015625-0.015625l-0.015625 0.015625v0.03125h0.015625z"/>
  </symbol>
  <symbol id="m" overflow="visible">
   <path d="m0.0625-0.015625c0.0078125-0.0078125 0.015625-0.019531 0.015625-0.03125h-0.015625v-0.015625c-0.011719 0-0.015625 0.0078125-0.015625 0.015625v0.03125h0.015625zm-0.015625-0.0625 0.015625-0.015625c0.0078125 0 0.019531 0.0078125 0.03125 0.015625 0.007812 0.011719 0.015625 0.023438 0.015625 0.03125 0 0.023438-0.007813 0.039062-0.015625 0.046875h-0.03125-0.015625v-0.015625 0.015625h-0.03125v-0.125h0.03125z"/>
  </symbol>
  <symbol id="h" overflow="visible">
   <path d="m0-0.078125h0.03125l0.015625 0.046875 0.015625-0.046875h0.03125l-0.03125 0.078125c0 0.0078125-0.0078125 0.015625-0.015625 0.015625 0 0.0078125-0.0078125 0.015625-0.015625 0.015625h-0.015625v-0.015625h0.015625v-0.015625z"/>
  </symbol>
  <symbol id="l" overflow="visible">
   <path d="m0.0625-0.09375c-0.011719 0-0.023438 0.0078125-0.03125 0.015625v0.015625 0.046875h0.03125 0.015625c0.0078125-0.0078125 0.015625-0.023438 0.015625-0.046875 0-0.0078125-0.0078125-0.015625-0.015625-0.015625 0-0.0078125-0.0078125-0.015625-0.015625-0.015625zm0-0.015625c0.019531 0 0.035156 0.007813 0.046875 0.015625 0.007813 0.011719 0.015625 0.023438 0.015625 0.03125 0 0.023438-0.007812 0.039062-0.015625 0.046875-0.011719 0.011719-0.027344 0.015625-0.046875 0.015625-0.023438 0-0.039062-0.0039062-0.046875-0.015625-0.011719-0.0078125-0.015625-0.023438-0.015625-0.046875 0-0.0078125 0.0039062-0.019531 0.015625-0.03125 0.0078125-0.007812 0.023438-0.015625 0.046875-0.015625z"/>
  </symbol>
  <symbol id="w" overflow="visible">
   <path d="m0.015625-0.125h0.03125v0.125h-0.03125z"/>
  </symbol>
  <symbol id="k" overflow="visible">
   <path d="m0.015625-0.125h0.03125v0.078125l0.015625-0.03125h0.046875l-0.046875 0.03125 0.046875 0.046875h-0.03125l-0.03125-0.03125v0.03125h-0.03125z"/>
  </symbol>
  <symbol id="g" overflow="visible">
   <path d="m0.078125-0.078125v0.015625h-0.03125-0.015625v0.015625h0.015625c0.0078125 0 0.015625 0.0078125 0.015625 0.015625h0.015625c0 0.011719-0.0078125 0.023438-0.015625 0.03125h-0.015625-0.03125v-0.03125 0.015625h0.03125c0.0078125 0 0.015625-0.0039062 0.015625-0.015625h-0.015625-0.046875v-0.03125c0-0.0078125 0.0039062-0.015625 0.015625-0.015625 0.0078125-0.0078125 0.019531-0.015625 0.03125-0.015625v0.015625h0.03125z"/>
  </symbol>
  <symbol id="f" overflow="visible">
   <path d="m0.09375-0.046875v0.046875h-0.03125v-0.03125-0.015625-0.015625c-0.011719 0-0.015625 0.0078125-0.015625 0.015625v0.046875h-0.03125v-0.078125h0.03125l0.015625-0.015625c0.0078125 0 0.015625 0.0078125 0.015625 0.015625 0.0078125 0.011719 0.015625 0.023438 0.015625 0.03125z"/>
  </symbol>
  <symbol id="j" overflow="visible">
   <path d="m0.015625-0.10938h0.046875c0.0078125 0 0.019531 0.007813 0.03125 0.015625 0.007812 0 0.015625 0.0078125 0.015625 0.015625 0 0.011719-0.007813 0.023438-0.015625 0.03125-0.011719 0.011719-0.023438 0.015625-0.03125 0.015625h-0.015625v0.03125h-0.03125zm0.03125 0.015625v0.03125h0.015625c0.0078125 0 0.015625-0.0039062 0.015625-0.015625h-0.015625v-0.015625z"/>
  </symbol>
  <symbol id="d" overflow="visible">
   <path d="m0.046875-0.0625h-0.015625v0.015625 0.03125h0.015625 0.015625c0.0078125-0.0078125 0.015625-0.019531 0.015625-0.03125 0-0.0078125-0.0078125-0.015625-0.015625-0.015625h-0.015625zm0-0.03125c0.019531 0 0.03125 0.0078125 0.03125 0.015625 0.0078125 0.011719 0.015625 0.023438 0.015625 0.03125 0 0.023438-0.0078125 0.039062-0.015625 0.046875h-0.03125-0.03125c-0.011719-0.0078125-0.015625-0.023438-0.015625-0.046875 0-0.0078125 0.0039062-0.019531 0.015625-0.03125 0.0078125-0.0078125 0.019531-0.015625 0.03125-0.015625z"/>
  </symbol>
  <symbol id="v" overflow="visible">
   <path d="m0-0.078125h0.03125l0.015625 0.046875 0.03125-0.046875h0.015625l-0.03125 0.078125h-0.03125z"/>
  </symbol>
  <symbol id="u" overflow="visible">
   <path d="m0.015625-0.078125h0.03125v0.078125h-0.03125zm0-0.046875h0.03125v0.03125h-0.03125z"/>
  </symbol>
  <symbol id="t" overflow="visible">
   <path d="m0.0625-0.125v0.03125h-0.015625v0.015625h0.015625v0.015625h-0.015625v0.0625h-0.03125v-0.0625h-0.015625v-0.015625h0.015625v-0.015625-0.015625c0.0078125-0.007813 0.019531-0.015625 0.03125-0.015625z"/>
  </symbol>
  <symbol id="s" overflow="visible">
   <path d="m0.09375-0.0625v-0.015625c0.007812-0.0078125 0.019531-0.015625 0.03125-0.015625 0.007812 0 0.015625 0.0078125 0.015625 0.015625 0.007813 0.011719 0.015625 0.023438 0.015625 0.03125v0.046875h-0.03125v-0.046875c0-0.0078125-0.007812-0.015625-0.015625-0.015625 0 0-0.007813 0.0078125-0.015625 0.015625v0.046875h-0.03125v-0.046875-0.015625c-0.011719 0-0.015625 0.0078125-0.015625 0.015625v0.046875h-0.03125v-0.078125h0.03125l0.015625-0.015625c0.0078125 0 0.015625 0.0078125 0.015625 0.015625 0.0078125 0 0.015625 0.0078125 0.015625 0.015625z"/>
  </symbol>
  <symbol id="r" overflow="visible">
   <path d="m0.09375-0.046875v0.046875h-0.03125v-0.03125-0.015625-0.015625c-0.011719 0-0.015625 0.0078125-0.015625 0.015625v0.046875h-0.03125v-0.125h0.03125v0.046875l0.015625-0.015625c0.0078125 0 0.015625 0.0078125 0.015625 0.015625 0.0078125 0.011719 0.015625 0.023438 0.015625 0.03125z"/>
  </symbol>
  <symbol id="q" overflow="visible">
   <path d="m0.015625-0.10938h0.03125l0.046875 0.078125v-0.078125h0.015625v0.10938h-0.03125l-0.03125-0.078125v0.078125h-0.03125z"/>
  </symbol>
  <symbol id="p" overflow="visible">
   <path d="m0.015625-0.03125v-0.046875h0.015625v0.03125 0.015625h0.015625v0.015625h0.015625v-0.03125-0.03125h0.03125v0.078125h-0.03125v-0.015625c0 0.011719-0.0078125 0.015625-0.015625 0.015625h-0.03125v-0.03125z"/>
  </symbol>
  <symbol id="o" overflow="visible">
   <path d="m0.015625-0.078125h0.03125v0.078125c0 0.0078125-0.0078125 0.015625-0.015625 0.015625 0 0.0078125-0.011719 0.015625-0.03125 0.015625v-0.015625c0.0078125 0 0.015625-0.0078125 0.015625-0.015625zm0-0.046875h0.03125v0.03125h-0.03125z"/>
  </symbol>
  <symbol id="n" overflow="visible">
   <path d="m0.078125-0.078125v0.015625h-0.015625c-0.011719 0-0.023438 0.0078125-0.03125 0.015625v0.03125h0.03125c0.0078125 0 0.015625-0.0039062 0.015625-0.015625v0.03125h-0.015625-0.046875c-0.011719-0.0078125-0.015625-0.023438-0.015625-0.046875 0-0.0078125 0.0039062-0.019531 0.015625-0.03125 0.0078125-0.0078125 0.023438-0.015625 0.046875-0.015625v0.015625h0.015625z"/>
  </symbol>
 </defs>
 <g>
  <path d="m295.87 0.37109h108.27c21.332 0 40.738 8.7422 54.785 22.789 14.074 14.047 22.789 33.453 22.789 54.816v230.64c0 21.332-8.7109 40.738-22.789 54.785-14.047 14.074-33.453 22.789-54.785 22.789h-108.27c-21.332 0-40.738-8.7109-54.785-22.789-14.047-14.047-22.789-33.453-22.789-54.785v-230.64c0-21.363 8.7422-40.77 22.789-54.816s33.453-22.789 54.785-22.789zm108.27 17.238h-108.27c-16.586 0-31.656 6.7891-42.602 17.734s-17.734 26.043-17.734 42.633v230.64c0 16.586 6.7891 31.656 17.734 42.602s26.012 17.734 42.602 17.734h108.27c16.586 0 31.656-6.7891 42.602-17.734s17.734-26.012 17.734-42.602v-230.64c0-16.586-6.7891-31.688-17.734-42.633s-26.012-17.734-42.602-17.734z"/>
  <path d="m358.62 78.781v74.227h-17.242v-74.227z"/>
  <path d="m341.44 297.46h17.117v228.16h-17.117z" fill-rule="evenodd"/>
  <path d="m349.29 559.63-42.691-62.754 12.68-11.039 23.594 35.379 12.805-0.43359 23.66-34.262 14.105 10.016z" fill-rule="evenodd"/>
  <use x="70" y="560.464844" xlink:href="#x"/>
  <use x="70.113281" y="560.464844" xlink:href="#c"/>
  <use x="70.191406" y="560.464844" xlink:href="#a"/>
  <use x="70.296875" y="560.464844" xlink:href="#b"/>
  <use x="70.398437" y="560.464844" xlink:href="#e"/>
  <use x="70.472656" y="560.464844" xlink:href="#a"/>
  <use x="70.578125" y="560.464844" xlink:href="#i"/>
  <use x="70.746094" y="560.464844" xlink:href="#m"/>
  <use x="70.855469" y="560.464844" xlink:href="#h"/>
  <use x="71.011719" y="560.464844" xlink:href="#l"/>
  <use x="71.140625" y="560.464844" xlink:href="#w"/>
  <use x="71.195312" y="560.464844" xlink:href="#a"/>
  <use x="71.300781" y="560.464844" xlink:href="#k"/>
  <use x="71.402344" y="560.464844" xlink:href="#g"/>
  <use x="71.496094" y="560.464844" xlink:href="#b"/>
  <use x="71.601562" y="560.464844" xlink:href="#f"/>
  <use x="71.710938" y="560.464844" xlink:href="#i"/>
  <use x="71.820312" y="560.464844" xlink:href="#c"/>
  <use x="71.953125" y="560.464844" xlink:href="#j"/>
  <use x="72.066406" y="560.464844" xlink:href="#b"/>
  <use x="72.171875" y="560.464844" xlink:href="#f"/>
  <use x="72.28125" y="560.464844" xlink:href="#b"/>
  <use x="72.386719" y="560.464844" xlink:href="#g"/>
  <use x="72.476562" y="560.464844" xlink:href="#d"/>
  <use x="72.582031" y="560.464844" xlink:href="#v"/>
  <use x="72.683594" y="560.464844" xlink:href="#g"/>
  <use x="72.777344" y="560.464844" xlink:href="#k"/>
  <use x="72.878906" y="560.464844" xlink:href="#h"/>
  <use x="72.980469" y="560.464844" xlink:href="#u"/>
  <use x="70" y="560.621094" xlink:href="#t"/>
  <use x="70.066406" y="560.621094" xlink:href="#c"/>
  <use x="70.144531" y="560.621094" xlink:href="#d"/>
  <use x="70.25" y="560.621094" xlink:href="#s"/>
  <use x="70.464844" y="560.621094" xlink:href="#e"/>
  <use x="70.539062" y="560.621094" xlink:href="#r"/>
  <use x="70.648437" y="560.621094" xlink:href="#a"/>
  <use x="70.808594" y="560.621094" xlink:href="#q"/>
  <use x="70.9375" y="560.621094" xlink:href="#d"/>
  <use x="71.046875" y="560.621094" xlink:href="#p"/>
  <use x="71.15625" y="560.621094" xlink:href="#f"/>
  <use x="71.320312" y="560.621094" xlink:href="#j"/>
  <use x="71.433594" y="560.621094" xlink:href="#c"/>
  <use x="71.511719" y="560.621094" xlink:href="#d"/>
  <use x="71.617188" y="560.621094" xlink:href="#o"/>
  <use x="71.671875" y="560.621094" xlink:href="#a"/>
  <use x="71.773438" y="560.621094" xlink:href="#n"/>
  <use x="71.867188" y="560.621094" xlink:href="#e"/>
 </g>
</svg>
